# Blender v2.92.0 OBJ File: 'uploads-files-2022531-3D_grass.blend'
# www.blender.org
mtllib grass14.mtl
o grass14_Plane.042
v -1.355996 -0.003835 -0.428171
v -1.205570 -0.003835 -0.307796
v -1.266317 1.128905 -0.348188
v -1.188332 1.076965 -0.285708
v -1.315387 -0.003835 -0.324729
v -1.117311 1.697832 -0.225329
v -1.350025 0.510633 -0.415798
v -1.218429 0.510633 -0.310491
v -1.312641 0.510633 -0.326682
v -1.236395 1.168081 -0.281543
vt 0.713726 0.409459
vt 0.292628 0.700261
vt 0.652201 0.346759
vt 0.308794 0.597506
vt 0.589798 0.283166
vt 0.910532 0.091908
vt 0.839696 0.019720
vt 0.395368 0.685732
vt 0.036390 0.952314
vt 0.981356 0.164084
vn -0.1692 -0.0480 0.9844
vn -0.9190 0.0823 0.3855
vn -0.9308 0.0020 0.3654
vn -0.1694 0.0046 0.9855
vn -0.0797 -0.0874 0.9930
vn -0.9326 0.1762 0.3151
vn 0.0034 -0.0439 0.9990
vn -0.9263 0.0822 0.3676
vn -0.9221 0.0064 0.3868
vn -0.1524 0.0014 0.9883
usemtl grass
s off
f 8/1/1 10/2/1 9/3/1
f 9/3/2 3/4/2 7/5/2
f 5/6/3 7/5/3 1/7/3
f 5/6/4 8/1/4 9/3/4
f 10/2/5 4/8/5 6/9/5
f 3/4/6 10/2/6 6/9/6
f 8/1/7 4/8/7 10/2/7
f 9/3/8 10/2/8 3/4/8
f 5/6/9 9/3/9 7/5/9
f 5/6/10 2/10/10 8/1/10
