# Blender v2.92.0 OBJ File: 'uploads-files-2022531-3D_grass.blend'
# www.blender.org
mtllib grass2.mtl
o grass2_Plane.003
v -1.490753 0.003548 1.436445
v -1.208008 0.003548 1.427622
v -1.457377 0.957061 1.304407
v -1.315645 1.028337 1.300785
v -1.347665 0.003548 1.486653
v -1.549157 1.463123 0.989829
v -1.435688 0.511080 1.444279
v -1.231122 0.511080 1.437896
v -1.331505 0.511080 1.478758
v -1.406846 1.088612 1.272510
vt 0.652201 0.346759
vt 0.395368 0.685732
vt 0.292628 0.700261
vt 0.589798 0.283166
vt 0.308794 0.597506
vt 0.910532 0.091908
vt 0.839696 0.019720
vt 0.713726 0.409459
vt 0.036390 0.952314
vt 0.981356 0.164084
vn -0.0763 0.3265 0.9421
vn -0.1553 0.2887 0.9447
vn -0.3310 0.0214 0.9434
vn 0.3770 0.0024 0.9262
vn 0.1886 0.6363 0.7480
vn -0.5143 0.3835 0.7671
vn 0.3604 0.2936 0.8854
vn -0.3011 0.2856 0.9098
vn -0.3141 0.0248 0.9491
vn 0.3893 -0.0009 0.9211
usemtl grass
s off
f 9/1/1 4/2/1 10/3/1
f 7/4/2 10/3/2 3/5/2
f 5/6/3 7/4/3 1/7/3
f 5/6/4 8/8/4 9/1/4
f 10/3/5 4/2/5 6/9/5
f 3/5/6 10/3/6 6/9/6
f 9/1/7 8/8/7 4/2/7
f 7/4/8 9/1/8 10/3/8
f 5/6/9 9/1/9 7/4/9
f 5/6/10 2/10/10 8/8/10
