# Blender v2.92.0 OBJ File: 'uploads-files-2022531-3D_grass.blend'
# www.blender.org
mtllib grass11.mtl
o grass11_Plane.017
v 4.069810 0.001731 0.014725
v 4.275640 0.001731 -0.067340
v 4.060392 1.088318 0.010373
v 4.166543 1.142019 -0.034611
v 4.196328 0.001731 0.032870
v 3.840106 1.758306 0.051029
v 4.085576 0.593444 0.015782
v 4.265641 0.593444 -0.056010
v 4.195934 0.593444 0.029014
v 4.115207 1.145052 0.026239
vt 0.652201 0.346759
vt 0.395368 0.685732
vt 0.292628 0.700261
vt 0.589798 0.283166
vt 0.308794 0.597506
vt 0.910532 0.091908
vt 0.839696 0.019720
vt 0.713726 0.409459
vt 0.036390 0.952314
vt 0.981356 0.164084
vn 0.7621 0.1147 0.6372
vn -0.2747 -0.0035 0.9615
vn -0.1420 0.0020 0.9899
vn 0.7733 0.0046 0.6340
vn 0.7353 0.3054 0.6051
vn -0.1656 -0.1139 0.9796
vn 0.7683 0.1142 0.6299
vn -0.1190 -0.0124 0.9928
vn -0.1190 0.0064 0.9929
vn 0.7841 0.0014 0.6206
usemtl grass
s off
f 9/1/1 4/2/1 10/3/1
f 7/4/2 10/3/2 3/5/2
f 5/6/3 7/4/3 1/7/3
f 5/6/4 8/8/4 9/1/4
f 10/3/5 4/2/5 6/9/5
f 3/5/6 10/3/6 6/9/6
f 9/1/7 8/8/7 4/2/7
f 7/4/8 9/1/8 10/3/8
f 5/6/9 9/1/9 7/4/9
f 5/6/10 2/10/10 8/8/10
