# Blender v2.92.0 OBJ File: 'uploads-files-2022531-3D_grass.blend'
# www.blender.org
mtllib grass4_plain.mtl
o grass4_Plane.004
v -0.140427 0.004136 -3.954464
v 0.189374 0.004136 -3.954464
v -0.064766 1.281889 -3.947813
v 0.117738 1.281889 -3.947813
v 0.024486 0.004136 -3.890754
v 0.027550 2.004136 -3.946329
v -0.119214 0.595849 -3.947644
v 0.169305 0.595849 -3.947644
v 0.026067 0.595849 -3.894481
v 0.026838 1.418057 -3.909828
vt 0.652201 0.346759
vt 0.395368 0.685732
vt 0.292628 0.700261
vt 0.308794 0.597506
vt 0.589798 0.283166
vt 0.910532 0.091908
vt 0.839696 0.019720
vt 0.713726 0.409459
vt 0.036390 0.952314
vt 0.981356 0.164084
vn 0.4067 0.0167 0.9134
vn -0.3435 0.0275 0.9387
vn -0.3604 0.0022 0.9328
vn 0.3479 0.0050 0.9375
vn 0.4538 0.0548 0.8894
vn -0.4523 0.0560 0.8901
vn 0.3478 0.0264 0.9372
vn -0.4050 0.0174 0.9141
vn -0.3436 0.0068 0.9391
vn 0.3604 0.0015 0.9328
usemtl None
s off
f 9/1/1 4/2/1 10/3/1
f 9/1/2 3/4/2 7/5/2
f 5/6/3 7/5/3 1/7/3
f 5/6/4 8/8/4 9/1/4
f 10/3/5 4/2/5 6/9/5
f 3/4/6 10/3/6 6/9/6
f 9/1/7 8/8/7 4/2/7
f 9/1/8 10/3/8 3/4/8
f 5/6/9 9/1/9 7/5/9
f 5/6/10 2/10/10 8/8/10
