# Blender v2.92.0 OBJ File: 'uploads-files-2022531-3D_grass.blend'
# www.blender.org
mtllib grass12.mtl
o grass12_Plane.016
v 1.441710 0.003878 0.031609
v 1.615704 0.003878 -0.081944
v 1.533372 1.220368 -0.023572
v 1.632845 1.199384 -0.077409
v 1.561362 0.003878 0.024854
v 1.715593 1.872602 -0.089232
v 1.456397 0.558696 0.029660
v 1.608611 0.558696 -0.069679
v 1.560286 0.558696 0.021383
v 1.624755 1.333386 -0.026648
vt 0.713726 0.409459
vt 0.292628 0.700261
vt 0.652201 0.346759
vt 0.308794 0.597506
vt 0.589798 0.283166
vt 0.910532 0.091908
vt 0.839696 0.019720
vt 0.395368 0.685732
vt 0.036390 0.952314
vt 0.981356 0.164084
vn 0.8825 -0.0444 0.4683
vn 0.0792 0.0708 0.9943
vn 0.0564 0.0020 0.9984
vn 0.8833 0.0046 0.4688
vn 0.9028 -0.1036 0.4175
vn -0.1362 0.1368 0.9812
vn 0.9693 -0.0337 0.2435
vn -0.0478 0.0658 0.9967
vn 0.0794 0.0064 0.9968
vn 0.8913 0.0014 0.4535
usemtl grass
s off
f 8/1/1 10/2/1 9/3/1
f 9/3/2 3/4/2 7/5/2
f 5/6/3 7/5/3 1/7/3
f 5/6/4 8/1/4 9/3/4
f 10/2/5 4/8/5 6/9/5
f 3/4/6 10/2/6 6/9/6
f 8/1/7 4/8/7 10/2/7
f 9/3/8 10/2/8 3/4/8
f 5/6/9 9/3/9 7/5/9
f 5/6/10 2/10/10 8/1/10
