# Blender v2.92.0 OBJ File: 'untitled.blend'
# www.blender.org
mtllib stone_1_plain.mtl
o Icosphere.008_Icosphere.011
v 4.020431 0.697938 0.000000
v 3.282914 0.345404 0.457612
v 4.266328 0.290934 0.850649
v 4.882545 0.243531 0.000000
v 4.266328 0.290934 -0.850649
v 3.269278 0.367629 -0.525725
v 3.433403 -0.186668 0.719888
v 4.664211 -0.367629 0.525725
v 4.664211 -0.367629 -0.525725
v 3.667161 -0.290934 -0.850649
v 3.050943 -0.243531 0.000000
v 3.913058 -0.697938 0.000000
v 4.174390 0.581245 0.499995
v 3.560301 0.570307 0.269207
v 3.685954 0.362326 0.703895
v 3.146827 0.432171 0.000000
v 3.588343 0.626324 -0.309011
v 4.536594 0.553382 0.000000
v 4.681131 0.314151 0.499997
v 4.174390 0.581245 -0.499995
v 4.681131 0.314151 -0.499997
v 3.732875 0.387093 -0.809012
v 3.018487 0.072941 0.309013
v 3.237620 -0.031040 -0.468331
v 3.966744 0.000000 1.000000
v 3.433403 -0.186668 0.719888
v 4.915001 -0.072941 0.309013
v 4.552799 -0.045080 0.809017
v 4.552799 -0.045080 -0.809017
v 4.915001 -0.072941 -0.309013
v 3.237620 -0.031040 -0.468331
v 3.966744 0.000000 -1.000000
v 3.433403 -0.186668 0.719888
v 4.200614 -0.387093 0.809012
v 4.786662 -0.432171 0.000000
v 4.200614 -0.387093 -0.809012
v 3.237620 -0.031040 -0.468331
v 3.759099 -0.581245 0.499995
v 3.396894 -0.553382 0.000000
v 4.345146 -0.626324 0.309011
v 4.345146 -0.626324 -0.309011
v 3.759099 -0.581245 -0.499995
vt 0.828015 0.164802
vt 0.828015 0.002002
vt 0.665214 0.164802
vt 0.828015 0.330605
vt 0.665214 0.330605
vt 0.828015 0.167805
vt 0.828015 0.993818
vt 0.665214 0.993818
vt 0.828015 0.831018
vt 0.993818 0.993818
vt 0.993818 0.831018
vt 0.831018 0.993818
vt 0.164802 0.164802
vt 0.002002 0.164802
vt 0.164802 0.002002
vt 0.001001 0.001001
vt 0.163801 0.001001
vt 0.001001 0.163801
vt 0.164802 0.330605
vt 0.164802 0.167805
vt 0.002002 0.330605
vt 0.828015 0.662211
vt 0.665214 0.662211
vt 0.828015 0.499411
vt 0.330605 0.828015
vt 0.167805 0.828015
vt 0.330605 0.665214
vt 0.664213 0.001001
vt 0.827014 0.001001
vt 0.664213 0.163801
vt 0.831018 0.164802
vt 0.993818 0.164802
vt 0.993818 0.002002
vt 0.993818 0.828015
vt 0.831018 0.828015
vt 0.993818 0.665214
vt 0.164802 0.828015
vt 0.002002 0.828015
vt 0.164802 0.665214
vt 0.001001 0.664213
vt 0.001001 0.827014
vt 0.163801 0.664213
vt 0.167805 0.998999
vt 0.330605 0.998999
vt 0.330605 0.996821
vt 0.164802 0.996821
vt 0.164802 0.998999
vt 0.002002 0.998999
vt 0.662211 0.164802
vt 0.499411 0.164802
vt 0.662211 0.002002
vt 0.164802 0.496408
vt 0.002002 0.496408
vt 0.164802 0.333608
vt 0.496408 0.496408
vt 0.333608 0.496408
vt 0.496408 0.333608
vt 0.662211 0.662211
vt 0.662211 0.499411
vt 0.499411 0.662211
vt 0.662211 0.831018
vt 0.499411 0.993818
vt 0.662211 0.993818
vt 0.498410 0.498410
vt 0.498410 0.661210
vt 0.661210 0.498410
vt 0.828015 0.665214
vt 0.828015 0.828015
vt 0.665214 0.828015
vt 0.831018 0.662211
vt 0.993818 0.499411
vt 0.993818 0.662211
vt 0.002002 0.662211
vt 0.164802 0.499411
vt 0.164802 0.662211
vt 0.992817 0.830017
vt 0.830017 0.830017
vt 0.830017 0.992817
vt 0.330605 0.167805
vt 0.167805 0.330605
vt 0.330605 0.330605
vt 0.992817 0.664213
vt 0.830017 0.827014
vt 0.830017 0.664213
vt 0.827014 0.830017
vt 0.664213 0.830017
vt 0.664213 0.992817
vt 0.830017 0.661210
vt 0.992817 0.498410
vt 0.830017 0.498410
vt 0.496408 0.993818
vt 0.496408 0.831018
vt 0.333608 0.993818
vt 0.831018 0.496408
vt 0.993818 0.333608
vt 0.993818 0.496408
vt 0.661210 0.830017
vt 0.498410 0.992817
vt 0.498410 0.830017
vt 0.830017 0.332607
vt 0.830017 0.495407
vt 0.992817 0.332607
vt 0.496408 0.499411
vt 0.496408 0.662211
vt 0.333608 0.662211
vt 0.166804 0.997998
vt 0.166804 0.995820
vt 0.329604 0.995820
vt 0.996821 0.169983
vt 0.998999 0.169983
vt 0.998999 0.167805
vt 0.998999 0.164802
vt 0.998999 0.002002
vt 0.996821 0.164802
vt 0.662211 0.665214
vt 0.499411 0.828015
vt 0.662211 0.828015
vt 0.002002 0.993818
vt 0.164802 0.993818
vt 0.164802 0.831018
vt 0.993818 0.167805
vt 0.993818 0.330605
vt 0.831018 0.330605
vt 0.330605 0.831018
vt 0.167805 0.993818
vt 0.330605 0.993818
vt 0.495407 0.830017
vt 0.332607 0.830017
vt 0.332607 0.992817
vt 0.166804 0.992817
vt 0.166804 0.830017
vt 0.329604 0.830017
vt 0.830017 0.329604
vt 0.992817 0.166804
vt 0.830017 0.166804
vt 0.001001 0.830017
vt 0.163801 0.830017
vt 0.001001 0.992817
vt 0.662211 0.496408
vt 0.662211 0.333608
vt 0.499411 0.496408
vt 0.997998 0.166804
vt 0.995820 0.166804
vt 0.995820 0.168982
vt 0.995820 0.001001
vt 0.995820 0.163801
vt 0.997998 0.001001
vt 0.830017 0.001001
vt 0.992817 0.001001
vt 0.830017 0.163801
vt 0.664213 0.827014
vt 0.827014 0.664213
vt 0.664213 0.664213
vt 0.662211 0.167805
vt 0.662211 0.330605
vt 0.499411 0.330605
vt 0.661210 0.664213
vt 0.498410 0.664213
vt 0.498410 0.827014
vt 0.828015 0.333608
vt 0.665214 0.496408
vt 0.828015 0.496408
vt 0.496408 0.828015
vt 0.496408 0.665214
vt 0.333608 0.828015
vt 0.827014 0.498410
vt 0.664213 0.498410
vt 0.664213 0.661210
vt 0.827014 0.332607
vt 0.664213 0.495407
vt 0.664213 0.332607
vt 0.495407 0.664213
vt 0.332607 0.827014
vt 0.332607 0.664213
vt 0.329604 0.664213
vt 0.166804 0.664213
vt 0.166804 0.827014
vt 0.163801 0.995820
vt 0.001001 0.995820
vt 0.001001 0.997998
vt 0.498410 0.332607
vt 0.661210 0.332607
vt 0.498410 0.495407
vt 0.495407 0.498410
vt 0.332607 0.498410
vt 0.332607 0.661210
vt 0.167805 0.662211
vt 0.330605 0.499411
vt 0.330605 0.662211
vt 0.661210 0.166804
vt 0.498410 0.166804
vt 0.498410 0.329604
vt 0.329604 0.498410
vt 0.166804 0.498410
vt 0.166804 0.661210
vt 0.498410 0.163801
vt 0.661210 0.001001
vt 0.498410 0.001001
vt 0.001001 0.498410
vt 0.163801 0.498410
vt 0.001001 0.661210
vt 0.332607 0.495407
vt 0.332607 0.332607
vt 0.495407 0.332607
vt 0.333608 0.164802
vt 0.496408 0.002002
vt 0.496408 0.164802
vt 0.496408 0.167805
vt 0.496408 0.330605
vt 0.333608 0.330605
vt 0.330605 0.333608
vt 0.330605 0.496408
vt 0.167805 0.496408
vt 0.166804 0.495407
vt 0.329604 0.332607
vt 0.166804 0.332607
vt 0.332607 0.166804
vt 0.332607 0.329604
vt 0.495407 0.166804
vt 0.495407 0.001001
vt 0.332607 0.001001
vt 0.332607 0.163801
vt 0.163801 0.332607
vt 0.001001 0.495407
vt 0.001001 0.332607
vt 0.167805 0.164802
vt 0.330605 0.164802
vt 0.330605 0.002002
vt 0.166804 0.329604
vt 0.166804 0.166804
vt 0.329604 0.166804
vt 0.329604 0.001001
vt 0.166804 0.163801
vt 0.166804 0.001001
vt 0.001001 0.329604
vt 0.163801 0.166804
vt 0.001001 0.166804
vt 0.664213 0.329604
vt 0.664213 0.166804
vt 0.827014 0.166804
vn -0.1144 0.9591 0.2591
vn -0.4711 0.8304 0.2976
vn 0.2670 0.9534 0.1403
vn 0.2670 0.9534 -0.1403
vn 0.0009 0.9739 -0.2270
vn -0.7609 0.5574 0.3320
vn -0.1375 0.5607 0.8165
vn 0.8749 0.3813 0.2986
vn 0.5772 0.4042 -0.7096
vn -0.5172 -0.0816 -0.8520
vn -0.6257 0.1953 0.7552
vn 0.3168 0.1542 0.9359
vn 0.9948 0.1020 0.0000
vn 0.3168 0.1542 -0.9359
vn 0.0000 0.0000 1.0000
vn 0.3294 -0.8111 0.4833
vn 0.5186 -0.8257 -0.2222
vn -0.0919 -0.7787 -0.6206
vn -0.5711 -0.6376 -0.5170
vn -0.2670 -0.9534 -0.1403
vn -0.6622 -0.6020 -0.4462
vn -0.6911 -0.6352 -0.3447
vn -0.0009 -0.9739 -0.2270
vn 0.0777 -0.8904 -0.4485
vn 0.3294 -0.8111 -0.4833
vn 0.1635 -0.9865 0.0000
vn 0.4025 -0.9154 0.0000
vn 0.5186 -0.8257 0.2222
vn -0.0009 -0.9739 0.2270
vn 0.0777 -0.8904 0.4485
vn -0.2484 -0.6199 0.7444
vn -0.2670 -0.9534 0.1403
vn -0.5919 -0.7056 0.3895
vn -0.6166 -0.6884 0.3820
vn -0.0109 -0.4477 -0.8941
vn 0.2771 -0.2853 -0.9175
vn 0.4708 -0.4848 -0.7371
vn 0.8208 -0.5117 -0.2540
vn 0.9417 -0.3364 0.0000
vn 0.8208 -0.5117 0.2540
vn 0.4708 -0.4848 0.7371
vn 0.2771 -0.2853 0.9175
vn -0.2351 -0.5406 0.8078
vn -0.7464 -0.5025 0.4363
vn -0.5832 0.1958 -0.7884
vn -0.5898 0.0415 -0.8065
vn 0.0109 0.4477 -0.8941
vn 0.7801 -0.2385 -0.5784
vn 0.7984 0.2026 -0.5671
vn 0.8749 0.3813 -0.2986
vn 0.7801 -0.2385 0.5784
vn 0.7984 0.2026 0.5671
vn 0.5772 0.4042 0.7096
vn -0.5191 0.2625 0.8134
vn -0.5115 0.2592 0.8193
vn -0.9388 0.1865 -0.2896
vn -0.9543 0.0982 -0.2822
vn -0.9718 0.0438 -0.2317
vn -0.3294 0.8111 -0.4833
vn -0.0777 0.8904 -0.4485
vn 0.0919 0.7787 -0.6206
vn 0.3980 0.7552 -0.5209
vn 0.4480 0.8500 -0.2772
vn 0.6584 0.7351 -0.1614
vn 0.6584 0.7351 0.1614
vn 0.4480 0.8500 0.2772
vn 0.3980 0.7552 0.5209
vn -0.5186 0.8257 -0.2222
vn -0.3583 0.9307 0.0728
vn -0.2207 0.9718 0.0834
vn -0.0702 0.7593 0.6470
vn -0.1913 0.8627 0.4681
vn -0.3294 0.8111 0.4833
usemtl None
s off
f 1/1/1 14/2/1 13/3/1
f 2/4/2 14/5/2 16/6/2
f 1/7/3 13/8/3 18/9/3
f 1/10/4 18/11/4 20/12/4
f 1/13/5 20/14/5 17/15/5
f 2/16/6 16/17/6 23/18/6
f 3/19/7 15/20/7 25/21/7
f 4/22/8 19/23/8 27/24/8
f 5/25/9 21/26/9 29/27/9
f 6/28/10 22/29/10 31/30/10
f 2/31/11 23/32/11 26/33/11
f 3/34/12 25/35/12 28/36/12
f 4/37/13 27/38/13 30/39/13
f 5/40/14 29/41/14 32/42/14
f 6/43/15 31/44/15 24/45/15
f 7/46/15 33/47/15 38/48/15
f 8/49/16 34/50/16 40/51/16
f 9/52/17 35/53/17 41/54/17
f 10/55/18 36/56/18 42/57/18
f 11/58/19 37/59/19 39/60/19
f 39/61/20 42/62/20 12/63/20
f 39/64/21 37/65/21 42/66/21
f 37/67/22 10/68/22 42/69/22
f 42/70/23 41/71/23 12/72/23
f 42/73/24 36/74/24 41/75/24
f 36/76/25 9/77/25 41/78/25
f 41/79/26 40/80/26 12/81/26
f 41/82/27 35/83/27 40/84/27
f 35/85/28 8/86/28 40/87/28
f 40/88/29 38/89/29 12/90/29
f 40/91/30 34/92/30 38/93/30
f 34/94/31 7/95/31 38/96/31
f 38/97/32 39/98/32 12/99/32
f 38/100/33 33/101/33 39/102/33
f 33/103/34 11/104/34 39/105/34
f 24/106/15 37/107/15 11/108/15
f 24/109/15 31/110/15 37/111/15
f 31/112/15 10/113/15 37/114/15
f 32/115/35 36/116/35 10/117/35
f 32/118/36 29/119/36 36/120/36
f 29/121/37 9/122/37 36/123/37
f 30/124/38 35/125/38 9/126/38
f 30/127/39 27/128/39 35/129/39
f 27/130/40 8/131/40 35/132/40
f 28/133/41 34/134/41 8/135/41
f 28/136/42 25/137/42 34/138/42
f 25/139/43 7/140/43 34/141/43
f 26/142/15 33/143/15 7/144/15
f 26/145/15 23/146/15 33/147/15
f 23/148/44 11/149/44 33/150/44
f 31/151/45 32/152/45 10/153/45
f 31/154/46 22/155/46 32/156/46
f 22/157/47 5/158/47 32/159/47
f 29/160/48 30/161/48 9/162/48
f 29/163/49 21/164/49 30/165/49
f 21/166/50 4/167/50 30/168/50
f 27/169/51 28/170/51 8/171/51
f 27/172/52 19/173/52 28/174/52
f 19/175/53 3/176/53 28/177/53
f 25/178/15 26/179/15 7/180/15
f 25/181/54 15/182/54 26/183/54
f 15/184/55 2/185/55 26/186/55
f 23/187/56 24/188/56 11/189/56
f 23/190/57 16/191/57 24/192/57
f 16/193/58 6/194/58 24/195/58
f 17/196/59 22/197/59 6/198/59
f 17/199/60 20/200/60 22/201/60
f 20/202/61 5/203/61 22/204/61
f 20/205/62 21/206/62 5/207/62
f 20/208/63 18/209/63 21/210/63
f 18/211/64 4/212/64 21/213/64
f 18/214/65 19/215/65 4/216/65
f 18/217/66 13/218/66 19/219/66
f 13/220/67 3/221/67 19/222/67
f 16/223/68 17/224/68 6/225/68
f 16/226/69 14/227/69 17/228/69
f 14/229/70 1/230/70 17/231/70
f 13/232/71 15/233/71 3/234/71
f 13/235/72 14/236/72 15/237/72
f 14/238/73 2/239/73 15/240/73
