# Blender v2.92.0 OBJ File: 'course_1.blend'
# www.blender.org
mtllib course_1_plain.mtl
o Cube.004
v 5.000000 1.000000 -14.000000
v 5.000000 -1.000000 -14.000000
v 5.000000 1.000000 14.000000
v 5.000000 -1.000000 14.000000
v -5.000000 1.000000 -14.000000
v -5.000000 -1.000000 -14.000000
v -5.000000 1.000000 14.000000
v -5.000000 -1.000000 14.000000
v 0.000000 -1.000000 9.000000
v 0.000000 1.000000 9.000000
v -0.195091 -1.000000 10.980785
v -0.195091 1.000000 10.980785
v 0.195090 -1.000000 9.019215
v 0.195090 1.000000 9.019215
v -0.382684 -1.000000 10.923880
v -0.382684 1.000000 10.923880
v 0.382683 -1.000000 9.076120
v 0.382683 1.000000 9.076120
v -0.555571 -1.000000 10.831470
v -0.555571 1.000000 10.831470
v 0.555570 -1.000000 9.168531
v 0.555570 1.000000 9.168531
v -0.707107 -1.000000 10.707107
v -0.707107 1.000000 10.707107
v 0.707107 -1.000000 9.292893
v 0.707107 1.000000 9.292893
v -0.831470 -1.000000 10.555570
v -0.831470 1.000000 10.555570
v 0.831470 -1.000000 9.444430
v 0.831470 1.000000 9.444430
v -0.923880 -1.000000 10.382683
v -0.923880 1.000000 10.382683
v 0.923880 -1.000000 9.617317
v 0.923880 1.000000 9.617317
v -0.980785 -1.000000 10.195089
v -0.980785 1.000000 10.195089
v 0.980785 -1.000000 9.804910
v 0.980785 1.000000 9.804910
v -1.000000 -1.000000 9.999999
v -1.000000 1.000000 9.999999
v 1.000000 -1.000000 10.000000
v 1.000000 1.000000 10.000000
v -0.980785 -1.000000 9.804909
v -0.980785 1.000000 9.804909
v 0.980785 -1.000000 10.195090
v 0.980785 1.000000 10.195090
v -0.923879 -1.000000 9.617315
v -0.923879 1.000000 9.617315
v 0.923880 -1.000000 10.382684
v 0.923880 1.000000 10.382684
v -0.831469 -1.000000 9.444429
v -0.831469 1.000000 9.444429
v 0.831470 -1.000000 10.555571
v 0.831470 1.000000 10.555571
v -0.707106 -1.000000 9.292892
v -0.707106 1.000000 9.292892
v 0.707107 -1.000000 10.707107
v 0.707107 1.000000 10.707107
v -0.555569 -1.000000 9.168530
v -0.555569 1.000000 9.168530
v 0.555570 -1.000000 10.831470
v 0.555570 1.000000 10.831470
v -0.382682 -1.000000 9.076119
v -0.382682 1.000000 9.076119
v 0.382683 -1.000000 10.923880
v 0.382683 1.000000 10.923880
v -0.195089 -1.000000 9.019215
v 0.195090 -1.000000 10.980785
v -0.195089 1.000000 9.019215
v 0.195090 1.000000 10.980785
v -0.000000 -1.000000 11.000001
v -0.000000 1.000000 11.000001
v -5.000000 -1.000000 16.000000
v -5.000000 3.000000 16.000000
v -5.000000 3.000000 14.000000
v 5.000000 -1.000000 16.000000
v 5.000000 3.000000 16.000000
v 5.000000 3.000000 14.000000
v -7.000000 -1.000000 16.000000
v -7.000000 3.000000 16.000000
v -7.000000 -1.000000 -16.000000
v -7.000000 3.000000 -16.000000
v -5.000000 -1.000000 -16.000000
v -5.000000 3.000000 -16.000000
v -5.000000 3.000000 -14.000000
v 5.000000 3.000000 -14.000000
v 5.000000 -1.000000 -16.000000
v 5.000000 3.000000 -16.000000
v 7.000000 -1.000000 16.000000
v 7.000000 3.000000 16.000000
v 7.000000 -1.000000 -16.000000
v 7.000000 3.000000 -16.000000
vt 0.823999 0.805879
vt 0.801001 0.901438
vt 0.823999 0.901438
vt 0.698999 0.877048
vt 0.601001 0.854660
vt 0.601001 0.877048
vt 0.898999 0.805879
vt 0.876001 0.901438
vt 0.898999 0.901438
vt 0.798999 0.877048
vt 0.701001 0.854660
vt 0.701001 0.877048
vt 0.923999 0.805879
vt 0.901001 0.901438
vt 0.923999 0.901438
vt 0.898999 0.925828
vt 0.801001 0.903440
vt 0.801001 0.925828
vt 0.926001 0.196123
vt 0.948999 0.291682
vt 0.948999 0.196123
vt 0.898999 0.927830
vt 0.801001 0.950218
vt 0.898999 0.950218
vt 0.926001 0.293684
vt 0.948999 0.389243
vt 0.948999 0.293684
vt 0.898999 0.952220
vt 0.801001 0.974609
vt 0.898999 0.974609
vt 0.926001 0.391245
vt 0.948999 0.486804
vt 0.948999 0.391245
vt 0.998999 0.903440
vt 0.901001 0.925828
vt 0.998999 0.925828
vt 0.926001 0.488806
vt 0.948999 0.584365
vt 0.948999 0.488806
vt 0.998999 0.927830
vt 0.901001 0.950218
vt 0.998999 0.950218
vt 0.926001 0.586367
vt 0.948999 0.681926
vt 0.948999 0.586367
vt 0.998999 0.952220
vt 0.901001 0.974609
vt 0.998999 0.974609
vt 0.926001 0.683928
vt 0.948999 0.779487
vt 0.948999 0.683928
vt 0.098999 0.976611
vt 0.001001 0.998999
vt 0.098999 0.998999
vt 0.926001 0.805879
vt 0.948999 0.901438
vt 0.948999 0.805879
vt 0.198999 0.976611
vt 0.101001 0.998999
vt 0.198999 0.998999
vt 0.951001 0.196123
vt 0.973999 0.291682
vt 0.973999 0.196123
vt 0.298999 0.976611
vt 0.201001 0.998999
vt 0.298999 0.998999
vt 0.973999 0.293684
vt 0.951001 0.389243
vt 0.973999 0.389243
vt 0.398999 0.998999
vt 0.301001 0.976611
vt 0.301001 0.998999
vt 0.923999 0.586367
vt 0.901001 0.681926
vt 0.923999 0.681926
vt 0.698999 0.828267
vt 0.601001 0.805879
vt 0.601001 0.828267
vt 0.923999 0.683928
vt 0.901001 0.779487
vt 0.923999 0.779487
vt 0.798999 0.828267
vt 0.701001 0.805879
vt 0.701001 0.828267
vt 0.873999 0.805879
vt 0.851001 0.901438
vt 0.873999 0.901438
vt 0.698999 0.852658
vt 0.601001 0.830269
vt 0.601001 0.852658
vt 0.848999 0.805879
vt 0.826001 0.901438
vt 0.848999 0.901438
vt 0.798999 0.852658
vt 0.701001 0.830269
vt 0.701001 0.852658
vt 0.923999 0.584365
vt 0.905750 0.397818
vt 0.905866 0.390244
vt 0.200000 0.549879
vt 0.192235 0.550012
vt 0.001001 0.391245
vt 0.201001 0.001001
vt 0.363778 0.187548
vt 0.363642 0.195122
vt 0.798999 0.901438
vt 0.483185 0.890681
vt 0.485195 0.890244
vt 0.001001 0.001001
vt 0.198999 0.389243
vt 0.198999 0.001001
vt 0.798999 0.950218
vt 0.401001 0.927830
vt 0.401001 0.950218
vt 0.601001 0.586367
vt 0.798999 0.779487
vt 0.798999 0.586367
vt 0.001001 0.781489
vt 0.198999 0.974609
vt 0.198999 0.781489
vt 0.201001 0.781489
vt 0.398999 0.974609
vt 0.398999 0.781489
vt 0.001001 0.586367
vt 0.198999 0.779487
vt 0.198999 0.586367
vt 0.401001 0.001001
vt 0.598999 0.389243
vt 0.598999 0.001001
vt 0.798999 0.925828
vt 0.401001 0.903440
vt 0.401001 0.925828
vt 0.601001 0.001001
vt 0.798999 0.194121
vt 0.798999 0.001001
vt 0.601001 0.196123
vt 0.798999 0.389243
vt 0.798999 0.196123
vt 0.398999 0.767417
vt 0.398999 0.779487
vt 0.201001 0.779487
vt 0.798999 0.584365
vt 0.601001 0.584365
vt 0.601001 0.572295
vt 0.898999 0.001001
vt 0.801001 0.389243
vt 0.898999 0.389243
vt 0.798999 0.974609
vt 0.401001 0.952220
vt 0.401001 0.974609
vt 0.801001 0.391245
vt 0.898999 0.779487
vt 0.898999 0.391245
vt 0.998999 0.803877
vt 0.601001 0.781489
vt 0.601001 0.803877
vt 0.998999 0.001001
vt 0.901001 0.194121
vt 0.998999 0.194121
vt 0.598999 0.779487
vt 0.401001 0.779487
vt 0.413376 0.586367
vt 0.598999 0.781489
vt 0.401001 0.877048
vt 0.598999 0.877048
vt 0.586624 0.391245
vt 0.598999 0.391245
vt 0.598999 0.584365
vt 0.801001 0.805879
vt 0.698999 0.854660
vt 0.876001 0.805879
vt 0.798999 0.854660
vt 0.901001 0.805879
vt 0.898999 0.903440
vt 0.926001 0.291682
vt 0.801001 0.927830
vt 0.926001 0.389243
vt 0.801001 0.952220
vt 0.926001 0.486804
vt 0.901001 0.903440
vt 0.926001 0.584365
vt 0.901001 0.927830
vt 0.926001 0.681926
vt 0.901001 0.952220
vt 0.926001 0.779487
vt 0.001001 0.976611
vt 0.926001 0.901438
vt 0.101001 0.976611
vt 0.951001 0.291682
vt 0.201001 0.976611
vt 0.951001 0.293684
vt 0.398999 0.976611
vt 0.901001 0.586367
vt 0.698999 0.805879
vt 0.901001 0.683928
vt 0.798999 0.805879
vt 0.851001 0.805879
vt 0.698999 0.830269
vt 0.826001 0.805879
vt 0.798999 0.830269
vt 0.902135 0.354375
vt 0.901001 0.352166
vt 0.923999 0.196123
vt 0.901001 0.428322
vt 0.902135 0.426113
vt 0.903180 0.422525
vt 0.903180 0.357963
vt 0.904096 0.362791
vt 0.904096 0.417697
vt 0.904848 0.411813
vt 0.904847 0.368674
vt 0.905406 0.375387
vt 0.905406 0.405101
vt 0.905750 0.382670
vt 0.160965 0.558122
vt 0.001001 0.584365
vt 0.160200 0.556776
vt 0.398999 0.391245
vt 0.398999 0.584364
vt 0.239800 0.556776
vt 0.239035 0.555431
vt 0.239035 0.558122
vt 0.160965 0.555431
vt 0.236770 0.554137
vt 0.233092 0.552944
vt 0.163230 0.554137
vt 0.166908 0.552944
vt 0.228143 0.551899
vt 0.222112 0.551041
vt 0.171857 0.551899
vt 0.177888 0.551041
vt 0.215231 0.550404
vt 0.207765 0.550012
vt 0.184769 0.550404
vt 0.370713 0.233946
vt 0.372093 0.233200
vt 0.398999 0.389243
vt 0.201001 0.389243
vt 0.368007 0.230991
vt 0.366785 0.227403
vt 0.398999 0.001001
vt 0.370713 0.156298
vt 0.372093 0.157044
vt 0.369334 0.233200
vt 0.369334 0.157044
vt 0.368007 0.159253
vt 0.365713 0.222575
vt 0.364834 0.216692
vt 0.366785 0.162841
vt 0.365713 0.167669
vt 0.364180 0.209979
vt 0.363778 0.202696
vt 0.364834 0.173552
vt 0.364180 0.180265
vt 0.420623 0.888175
vt 0.401001 0.888048
vt 0.798993 0.879050
vt 0.401002 0.892440
vt 0.420625 0.892312
vt 0.438708 0.892105
vt 0.438708 0.888382
vt 0.454558 0.888661
vt 0.454559 0.891827
vt 0.467567 0.891488
vt 0.467567 0.889000
vt 0.477233 0.889387
vt 0.477233 0.891101
vt 0.483185 0.889807
vt 0.001001 0.389243
vt 0.798999 0.927830
vt 0.601001 0.779487
vt 0.001001 0.974609
vt 0.201001 0.974609
vt 0.001001 0.779487
vt 0.401001 0.389243
vt 0.798999 0.903440
vt 0.601001 0.194121
vt 0.601001 0.389243
vt 0.201001 0.586367
vt 0.398999 0.598437
vt 0.398999 0.586367
vt 0.601001 0.403315
vt 0.601001 0.391245
vt 0.798999 0.391245
vt 0.801001 0.001001
vt 0.798999 0.952220
vt 0.801001 0.779487
vt 0.998999 0.781489
vt 0.901001 0.001001
vt 0.401001 0.586367
vt 0.586624 0.586367
vt 0.598999 0.586367
vt 0.401001 0.781489
vt 0.401001 0.584365
vt 0.413376 0.391245
vt 0.401001 0.391245
vn -0.0980 0.0000 0.9952
vn -0.2903 0.0000 0.9569
vn -0.4714 0.0000 0.8819
vn -0.6344 0.0000 0.7730
vn -0.7730 0.0000 0.6344
vn -0.8819 0.0000 0.4714
vn -0.9569 0.0000 0.2903
vn -0.9952 0.0000 0.0980
vn -0.9952 0.0000 -0.0980
vn -0.9569 0.0000 -0.2903
vn -0.8819 0.0000 -0.4714
vn -0.7730 0.0000 -0.6344
vn -0.6344 0.0000 -0.7730
vn -0.4714 0.0000 -0.8819
vn -0.2903 0.0000 -0.9569
vn -0.0980 0.0000 -0.9952
vn 0.0980 0.0000 -0.9952
vn 0.2903 0.0000 -0.9569
vn 0.4714 0.0000 -0.8819
vn 0.6344 0.0000 -0.7730
vn 0.7730 0.0000 -0.6344
vn 0.8819 0.0000 -0.4714
vn 0.9569 0.0000 -0.2903
vn 0.9952 0.0000 -0.0980
vn 0.9952 0.0000 0.0980
vn 0.9569 0.0000 0.2903
vn 0.8819 0.0000 0.4714
vn 0.7730 0.0000 0.6344
vn 0.6344 0.0000 0.7730
vn 0.4714 0.0000 0.8819
vn 0.2903 0.0000 0.9569
vn 0.0980 0.0000 0.9952
vn 0.0000 1.0000 0.0000
vn 0.0000 -1.0000 0.0000
vn 0.0000 0.0000 1.0000
vn -1.0000 0.0000 0.0000
vn 0.0000 0.0000 -1.0000
vn 1.0000 0.0000 0.0000
usemtl None
s off
f 9/1/1 14/2/1 10/3/1
f 13/4/2 18/5/2 14/6/2
f 17/7/3 22/8/3 18/9/3
f 21/10/4 26/11/4 22/12/4
f 25/13/5 30/14/5 26/15/5
f 29/16/6 34/17/6 30/18/6
f 37/19/7 34/20/7 33/21/7
f 41/22/8 38/23/8 37/24/8
f 45/25/9 42/26/9 41/27/9
f 49/28/10 46/29/10 45/30/10
f 53/31/11 50/32/11 49/33/11
f 57/34/12 54/35/12 53/36/12
f 61/37/13 58/38/13 57/39/13
f 65/40/14 62/41/14 61/42/14
f 68/43/15 66/44/15 65/45/15
f 71/46/16 70/47/16 68/48/16
f 72/49/17 11/50/17 12/51/17
f 15/52/18 12/53/18 11/54/18
f 19/55/19 16/56/19 15/57/19
f 23/58/20 20/59/20 19/60/20
f 27/61/21 24/62/21 23/63/21
f 31/64/22 28/65/22 27/66/22
f 31/67/23 36/68/23 32/69/23
f 35/70/24 40/71/24 36/72/24
f 39/73/25 44/74/25 40/75/25
f 43/76/26 48/77/26 44/78/26
f 47/79/27 52/80/27 48/81/27
f 51/82/28 56/83/28 52/84/28
f 55/85/29 60/86/29 56/87/29
f 59/88/30 64/89/30 60/90/30
f 63/91/31 69/92/31 64/93/31
f 10/94/32 67/95/32 9/96/32
f 3/97/33 70/98/33 72/99/33
f 10/100/33 14/101/33 1/102/33
f 2/103/34 13/104/34 9/105/34
f 8/106/34 11/107/34 71/108/34
f 77/109/35 73/110/35 76/111/35
f 75/112/33 77/113/33 78/114/33
f 80/115/36 81/116/36 79/117/36
f 82/118/37 83/119/37 81/120/37
f 92/121/38 89/122/38 91/123/38
f 88/124/37 91/125/37 87/126/37
f 84/127/37 87/128/37 83/129/37
f 84/130/33 86/131/33 88/132/33
f 74/133/35 79/134/35 73/135/35
f 90/136/35 76/137/35 89/138/35
f 78/139/33 77/140/33 90/141/33
f 80/142/33 74/143/33 75/144/33
f 78/145/37 7/146/37 75/147/37
f 4/148/34 73/149/34 8/150/34
f 86/151/35 5/152/35 1/153/35
f 87/154/34 6/155/34 83/156/34
f 86/157/36 3/158/36 78/159/36
f 91/160/34 89/161/34 4/162/34
f 85/163/38 7/164/38 5/165/38
f 8/166/34 73/167/34 79/168/34
f 9/1/1 13/169/1 14/2/1
f 13/4/2 17/170/2 18/5/2
f 17/7/3 21/171/3 22/8/3
f 21/10/4 25/172/4 26/11/4
f 25/13/5 29/173/5 30/14/5
f 29/16/6 33/174/6 34/17/6
f 37/19/7 38/175/7 34/20/7
f 41/22/8 42/176/8 38/23/8
f 45/25/9 46/177/9 42/26/9
f 49/28/10 50/178/10 46/29/10
f 53/31/11 54/179/11 50/32/11
f 57/34/12 58/180/12 54/35/12
f 61/37/13 62/181/13 58/38/13
f 65/40/14 66/182/14 62/41/14
f 68/43/15 70/183/15 66/44/15
f 71/46/16 72/184/16 70/47/16
f 72/49/17 71/185/17 11/50/17
f 15/52/18 16/186/18 12/53/18
f 19/55/19 20/187/19 16/56/19
f 23/58/20 24/188/20 20/59/20
f 27/61/21 28/189/21 24/62/21
f 31/64/22 32/190/22 28/65/22
f 31/67/23 35/191/23 36/68/23
f 35/70/24 39/192/24 40/71/24
f 39/73/25 43/193/25 44/74/25
f 43/76/26 47/194/26 48/77/26
f 47/79/27 51/195/27 52/80/27
f 51/82/28 55/196/28 56/83/28
f 55/85/29 59/197/29 60/86/29
f 59/88/30 63/198/30 64/89/30
f 63/91/31 67/199/31 69/92/31
f 10/94/32 69/200/32 67/95/32
f 32/201/33 36/202/33 7/203/33
f 3/97/33 46/204/33 50/205/33
f 3/97/33 50/205/33 54/206/33
f 28/207/33 32/201/33 7/203/33
f 24/208/33 28/207/33 7/203/33
f 3/97/33 54/206/33 58/209/33
f 3/97/33 58/209/33 62/210/33
f 20/211/33 24/208/33 7/203/33
f 16/212/33 20/211/33 7/203/33
f 7/203/33 3/97/33 72/99/33
f 3/97/33 62/210/33 66/213/33
f 3/97/33 66/213/33 70/98/33
f 12/214/33 16/212/33 7/203/33
f 72/99/33 12/214/33 7/203/33
f 46/215/33 3/216/33 42/217/33
f 3/216/33 1/102/33 42/217/33
f 1/102/33 5/218/33 10/100/33
f 5/218/33 7/219/33 40/220/33
f 44/221/33 5/218/33 40/220/33
f 7/219/33 36/222/33 40/220/33
f 38/223/33 42/217/33 1/102/33
f 5/218/33 44/221/33 48/224/33
f 5/218/33 48/224/33 52/225/33
f 34/226/33 38/223/33 1/102/33
f 30/227/33 34/226/33 1/102/33
f 5/218/33 52/225/33 56/228/33
f 5/218/33 56/228/33 60/229/33
f 26/230/33 30/227/33 1/102/33
f 22/231/33 26/230/33 1/102/33
f 5/218/33 60/229/33 64/232/33
f 5/218/33 64/232/33 69/233/33
f 18/234/33 22/231/33 1/102/33
f 14/101/33 18/234/33 1/102/33
f 5/218/33 69/233/33 10/100/33
f 39/235/34 35/236/34 8/237/34
f 8/237/34 6/238/34 39/235/34
f 6/238/34 2/103/34 9/105/34
f 47/239/34 6/238/34 51/240/34
f 2/103/34 4/241/34 41/242/34
f 4/241/34 45/243/34 41/242/34
f 43/244/34 39/235/34 6/238/34
f 47/239/34 43/244/34 6/238/34
f 2/103/34 41/242/34 37/245/34
f 2/103/34 37/245/34 33/246/34
f 51/240/34 6/238/34 55/247/34
f 55/247/34 6/238/34 59/248/34
f 2/103/34 33/246/34 29/249/34
f 2/103/34 29/249/34 25/250/34
f 59/248/34 6/238/34 63/251/34
f 63/251/34 6/238/34 67/252/34
f 2/103/34 25/250/34 21/253/34
f 2/103/34 21/253/34 17/254/34
f 67/252/34 6/238/34 9/105/34
f 2/103/34 17/254/34 13/104/34
f 49/255/34 45/256/34 4/257/34
f 8/106/34 35/258/34 31/259/34
f 8/106/34 31/259/34 27/260/34
f 53/261/34 49/255/34 4/257/34
f 57/262/34 53/261/34 4/257/34
f 8/106/34 27/260/34 23/263/34
f 8/106/34 23/263/34 19/264/34
f 61/265/34 57/262/34 4/257/34
f 65/266/34 61/265/34 4/257/34
f 4/257/34 8/106/34 71/108/34
f 8/106/34 19/264/34 15/267/34
f 8/106/34 15/267/34 11/107/34
f 68/268/34 65/266/34 4/257/34
f 71/108/34 68/268/34 4/257/34
f 77/109/35 74/269/35 73/110/35
f 75/112/33 74/270/33 77/113/33
f 80/115/36 82/271/36 81/116/36
f 82/118/37 84/272/37 83/119/37
f 92/121/38 90/273/38 89/122/38
f 88/124/37 92/274/37 91/125/37
f 84/127/37 88/275/37 87/128/37
f 84/130/33 85/276/33 86/131/33
f 74/133/35 80/277/35 79/134/35
f 90/136/35 77/278/35 76/137/35
f 90/141/33 92/279/33 86/280/33
f 92/279/33 88/281/33 86/280/33
f 86/280/33 78/139/33 90/141/33
f 75/144/33 85/282/33 80/142/33
f 85/282/33 84/283/33 82/284/33
f 80/142/33 85/282/33 82/284/33
f 78/145/37 3/285/37 7/146/37
f 4/148/34 76/286/34 73/149/34
f 86/151/35 85/287/35 5/152/35
f 87/154/34 2/288/34 6/155/34
f 86/157/36 1/289/36 3/158/36
f 76/290/34 4/162/34 89/161/34
f 4/162/34 2/291/34 91/160/34
f 2/291/34 87/292/34 91/160/34
f 85/163/38 75/293/38 7/164/38
f 79/168/34 81/294/34 6/295/34
f 81/294/34 83/296/34 6/295/34
f 6/295/34 8/166/34 79/168/34
